<?xml version="1.0" encoding="UTF-8"?>
<svg id="Layer_1" data-name="Layer 1" xmlns="http://www.w3.org/2000/svg" xmlns:xlink="http://www.w3.org/1999/xlink" viewBox="0 0 1920 1080">
  <defs>
    <style>
      .cls-1 {
        fill: #c7ccd1;
      }

      .cls-2 {
        fill: url(#linear-gradient-3);
      }

      .cls-2, .cls-3, .cls-4, .cls-5, .cls-6, .cls-7, .cls-8, .cls-9 {
        opacity: .5;
      }

      .cls-10 {
        fill: #c9a24d;
      }

      .cls-3 {
        fill: url(#linear-gradient-4);
      }

      .cls-4 {
        fill: url(#linear-gradient-6);
      }

      .cls-5 {
        fill: url(#linear-gradient-5);
      }

      .cls-11 {
        fill: #046a38;
      }

      .cls-6 {
        fill: url(#linear-gradient-2);
      }

      .cls-7 {
        fill: url(#linear-gradient);
      }

      .cls-8 {
        fill: url(#linear-gradient-8);
      }

      .cls-9 {
        fill: url(#linear-gradient-7);
      }
    </style>
    <linearGradient id="linear-gradient" x1="1024.53" y1="726.88" x2="1138.07" y2="675.96" gradientUnits="userSpaceOnUse">
      <stop offset=".11" stop-color="#000"/>
      <stop offset=".56" stop-color="#c7ccd1"/>
    </linearGradient>
    <linearGradient id="linear-gradient-2" x1="1067.95" y1="713.95" x2="1219.79" y2="644.88" gradientUnits="userSpaceOnUse">
      <stop offset=".2" stop-color="#c7ccd1"/>
      <stop offset=".66" stop-color="#000"/>
    </linearGradient>
    <linearGradient id="linear-gradient-3" x1="949.06" y1="510.35" x2="1028.87" y2="471.66" gradientUnits="userSpaceOnUse">
      <stop offset="0" stop-color="#000"/>
      <stop offset=".56" stop-color="#c7ccd1" stop-opacity=".5"/>
    </linearGradient>
    <linearGradient id="linear-gradient-4" x1="974.61" y1="449.96" x2="1089.98" y2="395.67" gradientUnits="userSpaceOnUse">
      <stop offset=".09" stop-color="#c7ccd1"/>
      <stop offset=".7" stop-color="#000" stop-opacity=".5"/>
    </linearGradient>
    <linearGradient id="linear-gradient-5" x1="809.27" y1="366.92" x2="1093.94" y2="757.71" gradientUnits="userSpaceOnUse">
      <stop offset=".6" stop-color="#c9a24d"/>
      <stop offset=".71" stop-color="#000"/>
    </linearGradient>
    <linearGradient id="linear-gradient-6" x1="844.56" y1="450.91" x2="1157.88" y2="892.38" gradientUnits="userSpaceOnUse">
      <stop offset=".28" stop-color="#000"/>
      <stop offset=".41" stop-color="#c9a24d"/>
    </linearGradient>
    <linearGradient id="linear-gradient-7" x1="710.55" y1="496.99" x2="933.32" y2="578.03" gradientUnits="userSpaceOnUse">
      <stop offset=".31" stop-color="#000"/>
      <stop offset=".55" stop-color="#046a38"/>
    </linearGradient>
    <linearGradient id="linear-gradient-8" x1="782.9" y1="466.25" x2="989.79" y2="547.06" gradientUnits="userSpaceOnUse">
      <stop offset=".37" stop-color="#046a38"/>
      <stop offset=".68" stop-color="#000"/>
    </linearGradient>
  </defs>
  <polygon class="cls-1" points="1001.32 307.3 942.7 480.63 986.74 581.28 1093.02 514.25 1001.32 307.3"/>
  <polygon class="cls-11" points="870.12 655.21 993.66 290 877.25 290 689.32 774.77 870.12 655.21"/>
  <polygon class="cls-1" points="1010.98 634.7 1109.71 551.91 1215.21 790 1079.79 790 1010.98 634.7"/>
  <polygon class="cls-10" points="689.32 790 803.1 790 1230.68 437.13 689.32 790"/>
  <polygon class="cls-7" points="1079.79 790 1135.42 790 1048.39 603.33 1010.98 634.7 1079.79 790"/>
  <polygon class="cls-6" points="1215.21 790 1135.42 790 1048.39 603.33 1109.71 551.91 1215.21 790"/>
  <polygon class="cls-2" points="986.74 581.28 1030.07 553.95 965.51 413.18 942.7 480.63 986.74 581.28"/>
  <polygon class="cls-3" points="1093.02 514.25 1030.07 553.95 965.51 413.18 1001.32 307.3 1093.02 514.25"/>
  <polygon class="cls-5" points="803.1 790 747.19 790 1230.68 437.13 803.1 790"/>
  <polygon class="cls-4" points="747.19 790 689.32 790 1230.68 437.13 747.19 790"/>
  <polygon class="cls-9" points="689.32 774.77 771.55 720.39 926.38 290 877.25 290 689.32 774.77"/>
  <polygon class="cls-8" points="870.12 655.21 771.55 720.39 926.38 290 993.66 290 870.12 655.21"/>
</svg>