<?xml version="1.0" encoding="UTF-8"?>
<svg id="Layer_1" data-name="Layer 1" xmlns="http://www.w3.org/2000/svg" viewBox="0 0 1920 1080">
  <defs>
    <style>
      .cls-1 {
        fill: #1f2933;
      }
    </style>
  </defs>
  <path class="cls-1" d="M435.22,607.69l64.7-181.88h34.18l65.92,181.88h-30.15l-35.4-101.2c-2.77-8.22-5.8-17.9-9.09-29.05-3.3-11.15-7.1-24.54-11.41-40.16h5.62c-4.15,15.79-7.87,29.32-11.17,40.59-3.3,11.27-6.21,20.81-8.73,28.63l-34.3,101.2h-30.15ZM470.25,559.71v-23.19h94.6v23.19h-94.6Z"/>
  <path class="cls-1" d="M673.13,610.37c-11.07,0-20.92-2.83-29.54-8.48-8.63-5.66-15.38-13.75-20.26-24.29-4.88-10.54-7.32-23.13-7.32-37.78s2.48-27.47,7.45-37.96c4.96-10.5,11.76-18.51,20.39-24.05,8.62-5.53,18.39-8.3,29.3-8.3,8.46,0,15.28,1.4,20.45,4.21,5.17,2.81,9.22,6.08,12.15,9.83,2.93,3.74,5.17,7.04,6.71,9.89h1.46v-67.63h26.86v181.88h-26.12v-21.36h-2.2c-1.55,2.93-3.83,6.27-6.84,10.01-3.01,3.74-7.12,7.02-12.33,9.83-5.21,2.81-11.92,4.21-20.14,4.21ZM678.99,587.55c7.65,0,14.1-2.03,19.35-6.1,5.25-4.07,9.24-9.71,11.96-16.91,2.73-7.2,4.09-15.52,4.09-24.96s-1.34-17.8-4.03-24.84c-2.69-7.04-6.65-12.53-11.9-16.48-5.25-3.95-11.74-5.92-19.47-5.92s-14.46,2.08-19.71,6.23-9.2,9.79-11.84,16.91c-2.65,7.12-3.97,15.16-3.97,24.11s1.34,17.17,4.03,24.41c2.69,7.24,6.67,12.98,11.96,17.21,5.29,4.23,11.8,6.35,19.53,6.35Z"/>
  <path class="cls-1" d="M817.67,607.69l-51.51-136.47h29.05l26.98,77.51c3.01,8.54,5.57,17.11,7.69,25.7,2.12,8.59,4.35,17.11,6.71,25.57h-8.06c2.28-8.46,4.47-16.99,6.59-25.57,2.12-8.58,4.64-17.15,7.57-25.7l26.98-77.51h28.81l-51.51,136.47h-29.3Z"/>
  <path class="cls-1" d="M935.83,450.34c-4.64,0-8.61-1.57-11.9-4.7-3.3-3.13-4.94-6.85-4.94-11.17s1.65-8.26,4.94-11.35c3.3-3.09,7.26-4.64,11.9-4.64s8.62,1.55,11.96,4.64c3.34,3.09,5,6.88,5,11.35s-1.67,8.14-5,11.23c-3.34,3.09-7.32,4.64-11.96,4.64ZM922.28,607.69v-136.47h26.86v136.47h-26.86Z"/>
  <path class="cls-1" d="M1034.22,610.5c-9.85,0-18.62-1.42-26.31-4.27s-14-7.06-18.92-12.63c-4.92-5.57-8.2-12.39-9.83-20.45l25.27-5.25c1.87,7.08,5.37,12.33,10.5,15.75s11.64,5.13,19.53,5.13c8.62,0,15.5-1.81,20.63-5.43,5.13-3.62,7.69-7.95,7.69-13,0-4.39-1.57-8.01-4.7-10.86-3.13-2.85-7.96-4.96-14.47-6.35l-22.95-5.25c-12.7-2.85-22.14-7.4-28.32-13.67-6.19-6.27-9.28-14.28-9.28-24.05,0-8.14,2.28-15.26,6.84-21.36,4.56-6.1,10.78-10.84,18.68-14.22,7.89-3.38,17.01-5.07,27.34-5.07s18.27,1.42,25.27,4.27c7,2.85,12.67,6.84,17.03,11.96,4.35,5.13,7.46,11.07,9.34,17.82l-24.05,5.25c-1.71-4.8-4.68-9.01-8.91-12.63-4.23-3.62-10.38-5.43-18.43-5.43-7.41,0-13.59,1.67-18.55,5-4.96,3.34-7.45,7.57-7.45,12.7,0,4.56,1.65,8.24,4.94,11.05s8.69,5.07,16.17,6.78l21.97,4.88c12.61,2.85,21.97,7.32,28.08,13.43s9.16,13.92,9.16,23.44c0,8.3-2.38,15.65-7.14,22.03-4.76,6.39-11.35,11.39-19.78,15.01s-18.21,5.43-29.36,5.43Z"/>
  <path class="cls-1" d="M1166.42,609.4c-9.28,0-17.42-1.95-24.41-5.86-7-3.91-12.43-9.68-16.3-17.33-3.87-7.65-5.8-17.09-5.8-28.32v-86.67h26.86v83.37c0,9.85,2.58,17.54,7.75,23.07,5.17,5.54,12.19,8.3,21.06,8.3,6.1,0,11.54-1.32,16.3-3.97,4.76-2.64,8.52-6.51,11.29-11.6,2.77-5.08,4.15-11.21,4.15-18.37v-80.81h26.86v136.47h-25.63l-.12-33.45h2.56c-3.99,12.37-9.81,21.32-17.46,26.86-7.65,5.54-16.68,8.3-27.1,8.3Z"/>
  <path class="cls-1" d="M1270.3,607.69v-136.47h26v21.97h1.46c2.52-7.49,6.92-13.35,13.18-17.58,6.27-4.23,13.39-6.35,21.36-6.35,1.71,0,3.66.06,5.86.18s4.03.31,5.49.55v25.63c-.98-.32-2.85-.65-5.62-.98-2.77-.32-5.58-.49-8.42-.49-6.19,0-11.76,1.3-16.72,3.91-4.96,2.61-8.83,6.21-11.6,10.8-2.77,4.6-4.15,9.91-4.15,15.93v82.89h-26.86Z"/>
  <path class="cls-1" d="M1421.06,610.5c-13.43,0-25.02-2.89-34.79-8.67-9.77-5.78-17.27-13.92-22.52-24.41-5.25-10.5-7.87-22.83-7.87-36.99s2.58-26.33,7.75-36.99c5.17-10.66,12.47-18.98,21.91-24.96,9.44-5.98,20.51-8.97,33.2-8.97,7.81,0,15.34,1.28,22.58,3.84,7.24,2.56,13.75,6.57,19.53,12.02,5.78,5.45,10.36,12.51,13.73,21.18s5.07,19.19,5.07,31.56v9.52h-108.76v-20.02h94.97l-12.57,6.59c0-8.38-1.3-15.77-3.91-22.16-2.61-6.39-6.45-11.37-11.54-14.95-5.09-3.58-11.46-5.37-19.1-5.37s-14.04,1.83-19.41,5.49-9.46,8.48-12.27,14.46c-2.81,5.98-4.21,12.51-4.21,19.59v13.67c0,9.36,1.61,17.27,4.82,23.74s7.71,11.35,13.49,14.65c5.78,3.3,12.49,4.94,20.14,4.94,5.04,0,9.6-.71,13.67-2.14,4.07-1.42,7.59-3.58,10.56-6.47,2.97-2.89,5.23-6.45,6.78-10.68l25.27,5.98c-2.2,7-5.88,13.18-11.05,18.55s-11.6,9.54-19.29,12.51c-7.69,2.97-16.42,4.46-26.18,4.46Z"/>
</svg>