<?xml version="1.0" encoding="UTF-8"?>
<svg id="Layer_1" data-name="Layer 1" xmlns="http://www.w3.org/2000/svg" viewBox="0 0 1920 1080">
  <defs>
    <style>
      .cls-1 {
        opacity: .5;
      }
    </style>
  </defs>
  <polygon points="1001.32 307.3 942.7 480.63 986.74 581.28 1093.02 514.25 1001.32 307.3"/>
  <polygon points="870.12 655.21 993.66 290 877.25 290 689.32 774.77 870.12 655.21"/>
  <polygon points="1010.98 634.7 1109.71 551.91 1215.21 790 1079.79 790 1010.98 634.7"/>
  <polygon points="689.32 790 803.1 790 1230.68 437.13 689.32 790"/>
  <polygon class="cls-1" points="1079.79 790 1135.42 790 1048.39 603.33 1010.98 634.7 1079.79 790"/>
  <polygon class="cls-1" points="1215.21 790 1135.42 790 1048.39 603.33 1109.71 551.91 1215.21 790"/>
  <polygon class="cls-1" points="986.74 581.28 1030.07 553.95 965.51 413.18 942.7 480.63 986.74 581.28"/>
  <polygon class="cls-1" points="1093.02 514.25 1030.07 553.95 965.51 413.18 1001.32 307.3 1093.02 514.25"/>
  <polygon class="cls-1" points="803.1 790 747.19 790 1230.68 437.13 803.1 790"/>
  <polygon class="cls-1" points="747.19 790 689.32 790 1230.68 437.13 747.19 790"/>
  <polygon class="cls-1" points="689.32 774.77 771.55 720.39 926.38 290 877.25 290 689.32 774.77"/>
  <polygon class="cls-1" points="870.12 655.21 771.55 720.39 926.38 290 993.66 290 870.12 655.21"/>
</svg>